<mxfile host="app.diagrams.net" modified="2023-09-14T17:20:12.431Z" agent="Mozilla/5.0 (Windows NT 10.0; Win64; x64) AppleWebKit/537.36 (KHTML, like Gecko) Chrome/115.0.0.0 Safari/537.36 OPR/101.0.0.0 (Edition std-1)" etag="pFMbwXbcKojfb-70X35y" version="21.7.5" type="google">
  <diagram name="Page-1" id="29qb2iqoRdpx3Sh8ipf0">
    <mxGraphModel grid="1" page="1" gridSize="10" guides="1" tooltips="1" connect="1" arrows="1" fold="1" pageScale="1" pageWidth="850" pageHeight="1100" math="0" shadow="0">
      <root>
        <mxCell id="0" />
        <mxCell id="1" parent="0" />
        <mxCell id="MdboUgI8TvP3iprR90km-1" value="PRODUTO" style="swimlane;fontStyle=0;childLayout=stackLayout;horizontal=1;startSize=30;horizontalStack=0;resizeParent=1;resizeParentMax=0;resizeLast=0;collapsible=1;marginBottom=0;whiteSpace=wrap;html=1;" vertex="1" parent="1">
          <mxGeometry x="60" y="320" width="190" height="180" as="geometry" />
        </mxCell>
        <mxCell id="MdboUgI8TvP3iprR90km-2" value="COD_TIPO_PRODUTO" style="text;strokeColor=none;fillColor=none;align=left;verticalAlign=middle;spacingLeft=4;spacingRight=4;overflow=hidden;points=[[0,0.5],[1,0.5]];portConstraint=eastwest;rotatable=0;whiteSpace=wrap;html=1;" vertex="1" parent="MdboUgI8TvP3iprR90km-1">
          <mxGeometry y="30" width="190" height="30" as="geometry" />
        </mxCell>
        <mxCell id="MdboUgI8TvP3iprR90km-3" value="NOM_PRODUTO" style="text;strokeColor=none;fillColor=none;align=left;verticalAlign=middle;spacingLeft=4;spacingRight=4;overflow=hidden;points=[[0,0.5],[1,0.5]];portConstraint=eastwest;rotatable=0;whiteSpace=wrap;html=1;" vertex="1" parent="MdboUgI8TvP3iprR90km-1">
          <mxGeometry y="60" width="190" height="30" as="geometry" />
        </mxCell>
        <mxCell id="MdboUgI8TvP3iprR90km-4" value="COD_ITEM_PEDIDO_COMPRA" style="text;strokeColor=none;fillColor=none;align=left;verticalAlign=middle;spacingLeft=4;spacingRight=4;overflow=hidden;points=[[0,0.5],[1,0.5]];portConstraint=eastwest;rotatable=0;whiteSpace=wrap;html=1;" vertex="1" parent="MdboUgI8TvP3iprR90km-1">
          <mxGeometry y="90" width="190" height="30" as="geometry" />
        </mxCell>
        <mxCell id="MdboUgI8TvP3iprR90km-5" value="VLR_PRODUTO_COMPRA" style="text;strokeColor=none;fillColor=none;align=left;verticalAlign=middle;spacingLeft=4;spacingRight=4;overflow=hidden;points=[[0,0.5],[1,0.5]];portConstraint=eastwest;rotatable=0;whiteSpace=wrap;html=1;" vertex="1" parent="MdboUgI8TvP3iprR90km-1">
          <mxGeometry y="120" width="190" height="30" as="geometry" />
        </mxCell>
        <mxCell id="MdboUgI8TvP3iprR90km-6" value="VLR_PRODUTO_VENDA" style="text;strokeColor=none;fillColor=none;align=left;verticalAlign=middle;spacingLeft=4;spacingRight=4;overflow=hidden;points=[[0,0.5],[1,0.5]];portConstraint=eastwest;rotatable=0;whiteSpace=wrap;html=1;" vertex="1" parent="MdboUgI8TvP3iprR90km-1">
          <mxGeometry y="150" width="190" height="30" as="geometry" />
        </mxCell>
        <mxCell id="MdboUgI8TvP3iprR90km-7" value="TIPO_PRODUTO" style="swimlane;fontStyle=0;childLayout=stackLayout;horizontal=1;startSize=30;horizontalStack=0;resizeParent=1;resizeParentMax=0;resizeLast=0;collapsible=1;marginBottom=0;whiteSpace=wrap;html=1;" vertex="1" parent="1">
          <mxGeometry x="-200" y="320" width="140" height="90" as="geometry" />
        </mxCell>
        <mxCell id="MdboUgI8TvP3iprR90km-8" value="COD_PRODUTO" style="text;strokeColor=none;fillColor=none;align=left;verticalAlign=middle;spacingLeft=4;spacingRight=4;overflow=hidden;points=[[0,0.5],[1,0.5]];portConstraint=eastwest;rotatable=0;whiteSpace=wrap;html=1;" vertex="1" parent="MdboUgI8TvP3iprR90km-7">
          <mxGeometry y="30" width="140" height="30" as="geometry" />
        </mxCell>
        <mxCell id="MdboUgI8TvP3iprR90km-9" value="DES_PRODUTO" style="text;strokeColor=none;fillColor=none;align=left;verticalAlign=middle;spacingLeft=4;spacingRight=4;overflow=hidden;points=[[0,0.5],[1,0.5]];portConstraint=eastwest;rotatable=0;whiteSpace=wrap;html=1;" vertex="1" parent="MdboUgI8TvP3iprR90km-7">
          <mxGeometry y="60" width="140" height="30" as="geometry" />
        </mxCell>
        <mxCell id="MdboUgI8TvP3iprR90km-10" value="" style="endArrow=none;html=1;rounded=0;" edge="1" parent="1">
          <mxGeometry width="50" height="50" relative="1" as="geometry">
            <mxPoint x="-60" y="350" as="sourcePoint" />
            <mxPoint x="60" y="350" as="targetPoint" />
          </mxGeometry>
        </mxCell>
        <mxCell id="MdboUgI8TvP3iprR90km-11" value="FORNECEDOR" style="swimlane;fontStyle=0;childLayout=stackLayout;horizontal=1;startSize=30;horizontalStack=0;resizeParent=1;resizeParentMax=0;resizeLast=0;collapsible=1;marginBottom=0;whiteSpace=wrap;html=1;" vertex="1" parent="1">
          <mxGeometry x="70" y="740" width="230" height="120" as="geometry" />
        </mxCell>
        <mxCell id="MdboUgI8TvP3iprR90km-12" value="COD_FORNECEDOR" style="text;strokeColor=none;fillColor=none;align=left;verticalAlign=middle;spacingLeft=4;spacingRight=4;overflow=hidden;points=[[0,0.5],[1,0.5]];portConstraint=eastwest;rotatable=0;whiteSpace=wrap;html=1;" vertex="1" parent="MdboUgI8TvP3iprR90km-11">
          <mxGeometry y="30" width="230" height="30" as="geometry" />
        </mxCell>
        <mxCell id="MdboUgI8TvP3iprR90km-13" value="NOM_FORNECEDOR" style="text;strokeColor=none;fillColor=none;align=left;verticalAlign=middle;spacingLeft=4;spacingRight=4;overflow=hidden;points=[[0,0.5],[1,0.5]];portConstraint=eastwest;rotatable=0;whiteSpace=wrap;html=1;" vertex="1" parent="MdboUgI8TvP3iprR90km-11">
          <mxGeometry y="60" width="230" height="30" as="geometry" />
        </mxCell>
        <mxCell id="MdboUgI8TvP3iprR90km-14" value="COD_ENDERECO" style="text;strokeColor=none;fillColor=none;align=left;verticalAlign=middle;spacingLeft=4;spacingRight=4;overflow=hidden;points=[[0,0.5],[1,0.5]];portConstraint=eastwest;rotatable=0;whiteSpace=wrap;html=1;" vertex="1" parent="MdboUgI8TvP3iprR90km-11">
          <mxGeometry y="90" width="230" height="30" as="geometry" />
        </mxCell>
        <mxCell id="MdboUgI8TvP3iprR90km-15" value="CLIENTE" style="swimlane;fontStyle=0;childLayout=stackLayout;horizontal=1;startSize=30;horizontalStack=0;resizeParent=1;resizeParentMax=0;resizeLast=0;collapsible=1;marginBottom=0;whiteSpace=wrap;html=1;" vertex="1" parent="1">
          <mxGeometry x="330" y="580" width="140" height="90" as="geometry" />
        </mxCell>
        <mxCell id="MdboUgI8TvP3iprR90km-16" value="COD_CLIENTE" style="text;strokeColor=none;fillColor=none;align=left;verticalAlign=middle;spacingLeft=4;spacingRight=4;overflow=hidden;points=[[0,0.5],[1,0.5]];portConstraint=eastwest;rotatable=0;whiteSpace=wrap;html=1;" vertex="1" parent="MdboUgI8TvP3iprR90km-15">
          <mxGeometry y="30" width="140" height="30" as="geometry" />
        </mxCell>
        <mxCell id="MdboUgI8TvP3iprR90km-17" value="NOM_CLIENTE" style="text;strokeColor=none;fillColor=none;align=left;verticalAlign=middle;spacingLeft=4;spacingRight=4;overflow=hidden;points=[[0,0.5],[1,0.5]];portConstraint=eastwest;rotatable=0;whiteSpace=wrap;html=1;" vertex="1" parent="MdboUgI8TvP3iprR90km-15">
          <mxGeometry y="60" width="140" height="30" as="geometry" />
        </mxCell>
        <mxCell id="MdboUgI8TvP3iprR90km-18" value="PEDIDO_VENDA" style="swimlane;fontStyle=0;childLayout=stackLayout;horizontal=1;startSize=30;horizontalStack=0;resizeParent=1;resizeParentMax=0;resizeLast=0;collapsible=1;marginBottom=0;whiteSpace=wrap;html=1;" vertex="1" parent="1">
          <mxGeometry x="570" y="580" width="200" height="210" as="geometry" />
        </mxCell>
        <mxCell id="MdboUgI8TvP3iprR90km-19" value="COD_PEDIDO_VENDA" style="text;strokeColor=none;fillColor=none;align=left;verticalAlign=middle;spacingLeft=4;spacingRight=4;overflow=hidden;points=[[0,0.5],[1,0.5]];portConstraint=eastwest;rotatable=0;whiteSpace=wrap;html=1;" vertex="1" parent="MdboUgI8TvP3iprR90km-18">
          <mxGeometry y="30" width="200" height="30" as="geometry" />
        </mxCell>
        <mxCell id="MdboUgI8TvP3iprR90km-20" value="COD_CLIENTE" style="text;strokeColor=none;fillColor=none;align=left;verticalAlign=middle;spacingLeft=4;spacingRight=4;overflow=hidden;points=[[0,0.5],[1,0.5]];portConstraint=eastwest;rotatable=0;whiteSpace=wrap;html=1;" vertex="1" parent="MdboUgI8TvP3iprR90km-18">
          <mxGeometry y="60" width="200" height="30" as="geometry" />
        </mxCell>
        <mxCell id="MdboUgI8TvP3iprR90km-21" value="COD_PRODUTO" style="text;strokeColor=none;fillColor=none;align=left;verticalAlign=middle;spacingLeft=4;spacingRight=4;overflow=hidden;points=[[0,0.5],[1,0.5]];portConstraint=eastwest;rotatable=0;whiteSpace=wrap;html=1;" vertex="1" parent="MdboUgI8TvP3iprR90km-18">
          <mxGeometry y="90" width="200" height="30" as="geometry" />
        </mxCell>
        <mxCell id="MdboUgI8TvP3iprR90km-22" value="COD_SITUACAO_PEDIDO" style="text;strokeColor=none;fillColor=none;align=left;verticalAlign=middle;spacingLeft=4;spacingRight=4;overflow=hidden;points=[[0,0.5],[1,0.5]];portConstraint=eastwest;rotatable=0;whiteSpace=wrap;html=1;" vertex="1" parent="MdboUgI8TvP3iprR90km-18">
          <mxGeometry y="120" width="200" height="30" as="geometry" />
        </mxCell>
        <mxCell id="MdboUgI8TvP3iprR90km-23" value="DTA_PEDIDO" style="text;strokeColor=none;fillColor=none;align=left;verticalAlign=middle;spacingLeft=4;spacingRight=4;overflow=hidden;points=[[0,0.5],[1,0.5]];portConstraint=eastwest;rotatable=0;whiteSpace=wrap;html=1;" vertex="1" parent="MdboUgI8TvP3iprR90km-18">
          <mxGeometry y="150" width="200" height="30" as="geometry" />
        </mxCell>
        <mxCell id="MdboUgI8TvP3iprR90km-24" value="VLR_PEDIDO_VENDA" style="text;strokeColor=none;fillColor=none;align=left;verticalAlign=middle;spacingLeft=4;spacingRight=4;overflow=hidden;points=[[0,0.5],[1,0.5]];portConstraint=eastwest;rotatable=0;whiteSpace=wrap;html=1;" vertex="1" parent="MdboUgI8TvP3iprR90km-18">
          <mxGeometry y="180" width="200" height="30" as="geometry" />
        </mxCell>
        <mxCell id="MdboUgI8TvP3iprR90km-25" value="SITUACAO_PEDIDO" style="swimlane;fontStyle=0;childLayout=stackLayout;horizontal=1;startSize=30;horizontalStack=0;resizeParent=1;resizeParentMax=0;resizeLast=0;collapsible=1;marginBottom=0;whiteSpace=wrap;html=1;" vertex="1" parent="1">
          <mxGeometry x="900" y="580" width="190" height="90" as="geometry" />
        </mxCell>
        <mxCell id="MdboUgI8TvP3iprR90km-26" value="COD_SITUACAO_PEDIDO" style="text;strokeColor=none;fillColor=none;align=left;verticalAlign=middle;spacingLeft=4;spacingRight=4;overflow=hidden;points=[[0,0.5],[1,0.5]];portConstraint=eastwest;rotatable=0;whiteSpace=wrap;html=1;" vertex="1" parent="MdboUgI8TvP3iprR90km-25">
          <mxGeometry y="30" width="190" height="30" as="geometry" />
        </mxCell>
        <mxCell id="MdboUgI8TvP3iprR90km-27" value="DES_SITUACAO_PEDIDO" style="text;strokeColor=none;fillColor=none;align=left;verticalAlign=middle;spacingLeft=4;spacingRight=4;overflow=hidden;points=[[0,0.5],[1,0.5]];portConstraint=eastwest;rotatable=0;whiteSpace=wrap;html=1;" vertex="1" parent="MdboUgI8TvP3iprR90km-25">
          <mxGeometry y="60" width="190" height="30" as="geometry" />
        </mxCell>
        <mxCell id="MdboUgI8TvP3iprR90km-28" value="FORMA_PAGAMENTO" style="swimlane;fontStyle=0;childLayout=stackLayout;horizontal=1;startSize=30;horizontalStack=0;resizeParent=1;resizeParentMax=0;resizeLast=0;collapsible=1;marginBottom=0;whiteSpace=wrap;html=1;" vertex="1" parent="1">
          <mxGeometry x="1320" y="700" width="190" height="90" as="geometry" />
        </mxCell>
        <mxCell id="MdboUgI8TvP3iprR90km-29" value="COD_FORMA_PAGAMENTO" style="text;strokeColor=none;fillColor=none;align=left;verticalAlign=middle;spacingLeft=4;spacingRight=4;overflow=hidden;points=[[0,0.5],[1,0.5]];portConstraint=eastwest;rotatable=0;whiteSpace=wrap;html=1;" vertex="1" parent="MdboUgI8TvP3iprR90km-28">
          <mxGeometry y="30" width="190" height="30" as="geometry" />
        </mxCell>
        <mxCell id="MdboUgI8TvP3iprR90km-30" value="DES_FORMA_PAGAMENTO" style="text;strokeColor=none;fillColor=none;align=left;verticalAlign=middle;spacingLeft=4;spacingRight=4;overflow=hidden;points=[[0,0.5],[1,0.5]];portConstraint=eastwest;rotatable=0;whiteSpace=wrap;html=1;" vertex="1" parent="MdboUgI8TvP3iprR90km-28">
          <mxGeometry y="60" width="190" height="30" as="geometry" />
        </mxCell>
        <mxCell id="MdboUgI8TvP3iprR90km-31" value="" style="endArrow=none;html=1;rounded=0;entryX=0.006;entryY=0;entryDx=0;entryDy=0;entryPerimeter=0;" edge="1" parent="1" target="MdboUgI8TvP3iprR90km-19">
          <mxGeometry width="50" height="50" relative="1" as="geometry">
            <mxPoint x="470" y="610" as="sourcePoint" />
            <mxPoint x="520" y="560" as="targetPoint" />
          </mxGeometry>
        </mxCell>
        <mxCell id="MdboUgI8TvP3iprR90km-32" value="" style="endArrow=none;html=1;rounded=0;entryX=-0.011;entryY=0;entryDx=0;entryDy=0;entryPerimeter=0;" edge="1" parent="1" target="MdboUgI8TvP3iprR90km-26">
          <mxGeometry width="50" height="50" relative="1" as="geometry">
            <mxPoint x="730" y="610" as="sourcePoint" />
            <mxPoint x="780" y="560" as="targetPoint" />
          </mxGeometry>
        </mxCell>
        <mxCell id="MdboUgI8TvP3iprR90km-33" value="COTACAO" style="swimlane;fontStyle=0;childLayout=stackLayout;horizontal=1;startSize=30;horizontalStack=0;resizeParent=1;resizeParentMax=0;resizeLast=0;collapsible=1;marginBottom=0;whiteSpace=wrap;html=1;" vertex="1" parent="1">
          <mxGeometry x="395" y="740" width="140" height="190" as="geometry" />
        </mxCell>
        <mxCell id="MdboUgI8TvP3iprR90km-34" value="COD_COTACAO" style="text;strokeColor=none;fillColor=none;align=left;verticalAlign=middle;spacingLeft=4;spacingRight=4;overflow=hidden;points=[[0,0.5],[1,0.5]];portConstraint=eastwest;rotatable=0;whiteSpace=wrap;html=1;" vertex="1" parent="MdboUgI8TvP3iprR90km-33">
          <mxGeometry y="30" width="140" height="30" as="geometry" />
        </mxCell>
        <mxCell id="MdboUgI8TvP3iprR90km-35" value="COD_FORNECEDOR" style="text;strokeColor=none;fillColor=none;align=left;verticalAlign=middle;spacingLeft=4;spacingRight=4;overflow=hidden;points=[[0,0.5],[1,0.5]];portConstraint=eastwest;rotatable=0;whiteSpace=wrap;html=1;" vertex="1" parent="MdboUgI8TvP3iprR90km-33">
          <mxGeometry y="60" width="140" height="30" as="geometry" />
        </mxCell>
        <mxCell id="MdboUgI8TvP3iprR90km-36" value="COD_PRODUTO" style="text;strokeColor=none;fillColor=none;align=left;verticalAlign=middle;spacingLeft=4;spacingRight=4;overflow=hidden;points=[[0,0.5],[1,0.5]];portConstraint=eastwest;rotatable=0;whiteSpace=wrap;html=1;" vertex="1" parent="MdboUgI8TvP3iprR90km-33">
          <mxGeometry y="90" width="140" height="30" as="geometry" />
        </mxCell>
        <mxCell id="MdboUgI8TvP3iprR90km-37" value="VLR_COTACAO" style="text;strokeColor=none;fillColor=none;align=left;verticalAlign=middle;spacingLeft=4;spacingRight=4;overflow=hidden;points=[[0,0.5],[1,0.5]];portConstraint=eastwest;rotatable=0;whiteSpace=wrap;html=1;" vertex="1" parent="MdboUgI8TvP3iprR90km-33">
          <mxGeometry y="120" width="140" height="30" as="geometry" />
        </mxCell>
        <mxCell id="MdboUgI8TvP3iprR90km-38" value="UNIDADE_MEDIDA" style="text;strokeColor=none;fillColor=none;align=left;verticalAlign=middle;spacingLeft=4;spacingRight=4;overflow=hidden;points=[[0,0.5],[1,0.5]];portConstraint=eastwest;rotatable=0;whiteSpace=wrap;html=1;" vertex="1" parent="MdboUgI8TvP3iprR90km-33">
          <mxGeometry y="150" width="140" height="40" as="geometry" />
        </mxCell>
        <mxCell id="MdboUgI8TvP3iprR90km-39" value="ITEM_PEDIDO_VENDA" style="swimlane;fontStyle=0;childLayout=stackLayout;horizontal=1;startSize=30;horizontalStack=0;resizeParent=1;resizeParentMax=0;resizeLast=0;collapsible=1;marginBottom=0;whiteSpace=wrap;html=1;" vertex="1" parent="1">
          <mxGeometry x="350" y="320" width="230" height="180" as="geometry" />
        </mxCell>
        <mxCell id="MdboUgI8TvP3iprR90km-40" value="COD_ITEM_PEDIDO_VENDA" style="text;strokeColor=none;fillColor=none;align=left;verticalAlign=middle;spacingLeft=4;spacingRight=4;overflow=hidden;points=[[0,0.5],[1,0.5]];portConstraint=eastwest;rotatable=0;whiteSpace=wrap;html=1;" vertex="1" parent="MdboUgI8TvP3iprR90km-39">
          <mxGeometry y="30" width="230" height="30" as="geometry" />
        </mxCell>
        <mxCell id="MdboUgI8TvP3iprR90km-41" value="COD_PRODUTO" style="text;strokeColor=none;fillColor=none;align=left;verticalAlign=middle;spacingLeft=4;spacingRight=4;overflow=hidden;points=[[0,0.5],[1,0.5]];portConstraint=eastwest;rotatable=0;whiteSpace=wrap;html=1;" vertex="1" parent="MdboUgI8TvP3iprR90km-39">
          <mxGeometry y="60" width="230" height="30" as="geometry" />
        </mxCell>
        <mxCell id="MdboUgI8TvP3iprR90km-42" value="COD_PEDIDO_VENDA" style="text;strokeColor=none;fillColor=none;align=left;verticalAlign=middle;spacingLeft=4;spacingRight=4;overflow=hidden;points=[[0,0.5],[1,0.5]];portConstraint=eastwest;rotatable=0;whiteSpace=wrap;html=1;" vertex="1" parent="MdboUgI8TvP3iprR90km-39">
          <mxGeometry y="90" width="230" height="30" as="geometry" />
        </mxCell>
        <mxCell id="MdboUgI8TvP3iprR90km-43" value="QTD_ITENS" style="text;strokeColor=none;fillColor=none;align=left;verticalAlign=middle;spacingLeft=4;spacingRight=4;overflow=hidden;points=[[0,0.5],[1,0.5]];portConstraint=eastwest;rotatable=0;whiteSpace=wrap;html=1;" vertex="1" parent="MdboUgI8TvP3iprR90km-39">
          <mxGeometry y="120" width="230" height="30" as="geometry" />
        </mxCell>
        <mxCell id="MdboUgI8TvP3iprR90km-44" value="VLR_ITEM_PEDIDO_VENDA" style="text;strokeColor=none;fillColor=none;align=left;verticalAlign=middle;spacingLeft=4;spacingRight=4;overflow=hidden;points=[[0,0.5],[1,0.5]];portConstraint=eastwest;rotatable=0;whiteSpace=wrap;html=1;" vertex="1" parent="MdboUgI8TvP3iprR90km-39">
          <mxGeometry y="150" width="230" height="30" as="geometry" />
        </mxCell>
        <mxCell id="MdboUgI8TvP3iprR90km-45" value="" style="endArrow=none;html=1;rounded=0;entryX=0;entryY=0;entryDx=0;entryDy=0;entryPerimeter=0;" edge="1" parent="1" target="MdboUgI8TvP3iprR90km-40">
          <mxGeometry width="50" height="50" relative="1" as="geometry">
            <mxPoint x="230" y="350" as="sourcePoint" />
            <mxPoint x="280" y="300" as="targetPoint" />
          </mxGeometry>
        </mxCell>
        <mxCell id="MdboUgI8TvP3iprR90km-46" value="" style="endArrow=none;html=1;rounded=0;" edge="1" parent="1">
          <mxGeometry width="50" height="50" relative="1" as="geometry">
            <mxPoint x="690" y="580" as="sourcePoint" />
            <mxPoint x="580" y="350" as="targetPoint" />
            <Array as="points">
              <mxPoint x="690" y="350" />
            </Array>
          </mxGeometry>
        </mxCell>
        <mxCell id="MdboUgI8TvP3iprR90km-47" value="PEDIDO_COMPRA" style="swimlane;fontStyle=0;childLayout=stackLayout;horizontal=1;startSize=30;horizontalStack=0;resizeParent=1;resizeParentMax=0;resizeLast=0;collapsible=1;marginBottom=0;whiteSpace=wrap;html=1;" vertex="1" parent="1">
          <mxGeometry x="-222.5" y="740" width="185" height="150" as="geometry" />
        </mxCell>
        <mxCell id="MdboUgI8TvP3iprR90km-48" value="COD_PEDIDO_COMPRA" style="text;strokeColor=none;fillColor=none;align=left;verticalAlign=middle;spacingLeft=4;spacingRight=4;overflow=hidden;points=[[0,0.5],[1,0.5]];portConstraint=eastwest;rotatable=0;whiteSpace=wrap;html=1;" vertex="1" parent="MdboUgI8TvP3iprR90km-47">
          <mxGeometry y="30" width="185" height="30" as="geometry" />
        </mxCell>
        <mxCell id="MdboUgI8TvP3iprR90km-49" value="COD_FORNECEDOR" style="text;strokeColor=none;fillColor=none;align=left;verticalAlign=middle;spacingLeft=4;spacingRight=4;overflow=hidden;points=[[0,0.5],[1,0.5]];portConstraint=eastwest;rotatable=0;whiteSpace=wrap;html=1;" vertex="1" parent="MdboUgI8TvP3iprR90km-47">
          <mxGeometry y="60" width="185" height="30" as="geometry" />
        </mxCell>
        <mxCell id="MdboUgI8TvP3iprR90km-50" value="COD_PRODUTO" style="text;strokeColor=none;fillColor=none;align=left;verticalAlign=middle;spacingLeft=4;spacingRight=4;overflow=hidden;points=[[0,0.5],[1,0.5]];portConstraint=eastwest;rotatable=0;whiteSpace=wrap;html=1;" vertex="1" parent="MdboUgI8TvP3iprR90km-47">
          <mxGeometry y="90" width="185" height="30" as="geometry" />
        </mxCell>
        <mxCell id="MdboUgI8TvP3iprR90km-51" value="VLR_PEDIDO_COMPRA" style="text;strokeColor=none;fillColor=none;align=left;verticalAlign=middle;spacingLeft=4;spacingRight=4;overflow=hidden;points=[[0,0.5],[1,0.5]];portConstraint=eastwest;rotatable=0;whiteSpace=wrap;html=1;" vertex="1" parent="MdboUgI8TvP3iprR90km-47">
          <mxGeometry y="120" width="185" height="30" as="geometry" />
        </mxCell>
        <mxCell id="MdboUgI8TvP3iprR90km-52" value="ITEM_PEDIDO_VENDA" style="swimlane;fontStyle=0;childLayout=stackLayout;horizontal=1;startSize=30;horizontalStack=0;resizeParent=1;resizeParentMax=0;resizeLast=0;collapsible=1;marginBottom=0;whiteSpace=wrap;html=1;" vertex="1" parent="1">
          <mxGeometry x="-210" y="460" width="180" height="180" as="geometry" />
        </mxCell>
        <mxCell id="MdboUgI8TvP3iprR90km-53" value="COD_ITEM_PEDIDO_VENDA" style="text;strokeColor=none;fillColor=none;align=left;verticalAlign=middle;spacingLeft=4;spacingRight=4;overflow=hidden;points=[[0,0.5],[1,0.5]];portConstraint=eastwest;rotatable=0;whiteSpace=wrap;html=1;" vertex="1" parent="MdboUgI8TvP3iprR90km-52">
          <mxGeometry y="30" width="180" height="30" as="geometry" />
        </mxCell>
        <mxCell id="MdboUgI8TvP3iprR90km-54" value="COD_PRODUTO" style="text;strokeColor=none;fillColor=none;align=left;verticalAlign=middle;spacingLeft=4;spacingRight=4;overflow=hidden;points=[[0,0.5],[1,0.5]];portConstraint=eastwest;rotatable=0;whiteSpace=wrap;html=1;" vertex="1" parent="MdboUgI8TvP3iprR90km-52">
          <mxGeometry y="60" width="180" height="30" as="geometry" />
        </mxCell>
        <mxCell id="MdboUgI8TvP3iprR90km-55" value="COD_PEDIDO_COMPRA" style="text;strokeColor=none;fillColor=none;align=left;verticalAlign=middle;spacingLeft=4;spacingRight=4;overflow=hidden;points=[[0,0.5],[1,0.5]];portConstraint=eastwest;rotatable=0;whiteSpace=wrap;html=1;" vertex="1" parent="MdboUgI8TvP3iprR90km-52">
          <mxGeometry y="90" width="180" height="30" as="geometry" />
        </mxCell>
        <mxCell id="MdboUgI8TvP3iprR90km-56" value="QTD_ITENS" style="text;strokeColor=none;fillColor=none;align=left;verticalAlign=middle;spacingLeft=4;spacingRight=4;overflow=hidden;points=[[0,0.5],[1,0.5]];portConstraint=eastwest;rotatable=0;whiteSpace=wrap;html=1;" vertex="1" parent="MdboUgI8TvP3iprR90km-52">
          <mxGeometry y="120" width="180" height="30" as="geometry" />
        </mxCell>
        <mxCell id="MdboUgI8TvP3iprR90km-57" value="VLR_ITEM_PEDIDO_COMPRA" style="text;strokeColor=none;fillColor=none;align=left;verticalAlign=middle;spacingLeft=4;spacingRight=4;overflow=hidden;points=[[0,0.5],[1,0.5]];portConstraint=eastwest;rotatable=0;whiteSpace=wrap;html=1;" vertex="1" parent="MdboUgI8TvP3iprR90km-52">
          <mxGeometry y="150" width="180" height="30" as="geometry" />
        </mxCell>
        <mxCell id="MdboUgI8TvP3iprR90km-58" value="" style="endArrow=none;html=1;rounded=0;entryX=0.021;entryY=-0.033;entryDx=0;entryDy=0;entryPerimeter=0;" edge="1" parent="1" target="MdboUgI8TvP3iprR90km-34">
          <mxGeometry width="50" height="50" relative="1" as="geometry">
            <mxPoint x="210" y="770" as="sourcePoint" />
            <mxPoint x="260" y="720" as="targetPoint" />
          </mxGeometry>
        </mxCell>
        <mxCell id="MdboUgI8TvP3iprR90km-59" value="" style="endArrow=none;html=1;rounded=0;exitX=0.392;exitY=0.02;exitDx=0;exitDy=0;exitPerimeter=0;" edge="1" parent="1" source="MdboUgI8TvP3iprR90km-47">
          <mxGeometry width="50" height="50" relative="1" as="geometry">
            <mxPoint x="-150" y="730" as="sourcePoint" />
            <mxPoint x="-150" y="640" as="targetPoint" />
          </mxGeometry>
        </mxCell>
        <mxCell id="MdboUgI8TvP3iprR90km-60" value="" style="endArrow=none;html=1;rounded=0;entryX=-0.005;entryY=0;entryDx=0;entryDy=0;entryPerimeter=0;" edge="1" parent="1" target="MdboUgI8TvP3iprR90km-4">
          <mxGeometry width="50" height="50" relative="1" as="geometry">
            <mxPoint x="-30" y="490" as="sourcePoint" />
            <mxPoint x="50" y="490" as="targetPoint" />
            <Array as="points">
              <mxPoint x="10" y="490" />
              <mxPoint x="10" y="410" />
            </Array>
          </mxGeometry>
        </mxCell>
        <mxCell id="MdboUgI8TvP3iprR90km-61" value="" style="endArrow=none;html=1;rounded=0;entryX=-0.004;entryY=0.033;entryDx=0;entryDy=0;entryPerimeter=0;" edge="1" parent="1" target="MdboUgI8TvP3iprR90km-12">
          <mxGeometry width="50" height="50" relative="1" as="geometry">
            <mxPoint x="-40" y="770" as="sourcePoint" />
            <mxPoint x="10" y="720" as="targetPoint" />
          </mxGeometry>
        </mxCell>
        <mxCell id="MdboUgI8TvP3iprR90km-62" value="ENDERECO" style="swimlane;fontStyle=0;childLayout=stackLayout;horizontal=1;startSize=30;horizontalStack=0;resizeParent=1;resizeParentMax=0;resizeLast=0;collapsible=1;marginBottom=0;whiteSpace=wrap;html=1;" vertex="1" parent="1">
          <mxGeometry x="-200" y="960" width="140" height="210" as="geometry" />
        </mxCell>
        <mxCell id="MdboUgI8TvP3iprR90km-63" value="COD_ENDERECO" style="text;strokeColor=none;fillColor=none;align=left;verticalAlign=middle;spacingLeft=4;spacingRight=4;overflow=hidden;points=[[0,0.5],[1,0.5]];portConstraint=eastwest;rotatable=0;whiteSpace=wrap;html=1;" vertex="1" parent="MdboUgI8TvP3iprR90km-62">
          <mxGeometry y="30" width="140" height="30" as="geometry" />
        </mxCell>
        <mxCell id="MdboUgI8TvP3iprR90km-64" value="RUA" style="text;strokeColor=none;fillColor=none;align=left;verticalAlign=middle;spacingLeft=4;spacingRight=4;overflow=hidden;points=[[0,0.5],[1,0.5]];portConstraint=eastwest;rotatable=0;whiteSpace=wrap;html=1;" vertex="1" parent="MdboUgI8TvP3iprR90km-62">
          <mxGeometry y="60" width="140" height="30" as="geometry" />
        </mxCell>
        <mxCell id="MdboUgI8TvP3iprR90km-65" value="NUM" style="text;strokeColor=none;fillColor=none;align=left;verticalAlign=middle;spacingLeft=4;spacingRight=4;overflow=hidden;points=[[0,0.5],[1,0.5]];portConstraint=eastwest;rotatable=0;whiteSpace=wrap;html=1;" vertex="1" parent="MdboUgI8TvP3iprR90km-62">
          <mxGeometry y="90" width="140" height="30" as="geometry" />
        </mxCell>
        <mxCell id="MdboUgI8TvP3iprR90km-66" value="BAIRRO" style="text;strokeColor=none;fillColor=none;align=left;verticalAlign=middle;spacingLeft=4;spacingRight=4;overflow=hidden;points=[[0,0.5],[1,0.5]];portConstraint=eastwest;rotatable=0;whiteSpace=wrap;html=1;" vertex="1" parent="MdboUgI8TvP3iprR90km-62">
          <mxGeometry y="120" width="140" height="30" as="geometry" />
        </mxCell>
        <mxCell id="MdboUgI8TvP3iprR90km-67" value="CIDADE" style="text;strokeColor=none;fillColor=none;align=left;verticalAlign=middle;spacingLeft=4;spacingRight=4;overflow=hidden;points=[[0,0.5],[1,0.5]];portConstraint=eastwest;rotatable=0;whiteSpace=wrap;html=1;" vertex="1" parent="MdboUgI8TvP3iprR90km-62">
          <mxGeometry y="150" width="140" height="30" as="geometry" />
        </mxCell>
        <mxCell id="MdboUgI8TvP3iprR90km-68" value="CEP" style="text;strokeColor=none;fillColor=none;align=left;verticalAlign=middle;spacingLeft=4;spacingRight=4;overflow=hidden;points=[[0,0.5],[1,0.5]];portConstraint=eastwest;rotatable=0;whiteSpace=wrap;html=1;" vertex="1" parent="MdboUgI8TvP3iprR90km-62">
          <mxGeometry y="180" width="140" height="30" as="geometry" />
        </mxCell>
        <mxCell id="MdboUgI8TvP3iprR90km-69" value="CONTATO" style="swimlane;fontStyle=0;childLayout=stackLayout;horizontal=1;startSize=30;horizontalStack=0;resizeParent=1;resizeParentMax=0;resizeLast=0;collapsible=1;marginBottom=0;whiteSpace=wrap;html=1;" vertex="1" parent="1">
          <mxGeometry x="200" y="1100" width="140" height="90" as="geometry" />
        </mxCell>
        <mxCell id="MdboUgI8TvP3iprR90km-70" value="COD_CONTATO" style="text;strokeColor=none;fillColor=none;align=left;verticalAlign=middle;spacingLeft=4;spacingRight=4;overflow=hidden;points=[[0,0.5],[1,0.5]];portConstraint=eastwest;rotatable=0;whiteSpace=wrap;html=1;" vertex="1" parent="MdboUgI8TvP3iprR90km-69">
          <mxGeometry y="30" width="140" height="30" as="geometry" />
        </mxCell>
        <mxCell id="MdboUgI8TvP3iprR90km-71" value="TELEFONE" style="text;strokeColor=none;fillColor=none;align=left;verticalAlign=middle;spacingLeft=4;spacingRight=4;overflow=hidden;points=[[0,0.5],[1,0.5]];portConstraint=eastwest;rotatable=0;whiteSpace=wrap;html=1;" vertex="1" parent="MdboUgI8TvP3iprR90km-69">
          <mxGeometry y="60" width="140" height="30" as="geometry" />
        </mxCell>
        <mxCell id="MdboUgI8TvP3iprR90km-72" value="FORNECEDOR_CONTATO" style="swimlane;fontStyle=0;childLayout=stackLayout;horizontal=1;startSize=30;horizontalStack=0;resizeParent=1;resizeParentMax=0;resizeLast=0;collapsible=1;marginBottom=0;whiteSpace=wrap;html=1;" vertex="1" parent="1">
          <mxGeometry x="200" y="940" width="170" height="90" as="geometry" />
        </mxCell>
        <mxCell id="MdboUgI8TvP3iprR90km-73" value="COD_FORNECEDOR" style="text;strokeColor=none;fillColor=none;align=left;verticalAlign=middle;spacingLeft=4;spacingRight=4;overflow=hidden;points=[[0,0.5],[1,0.5]];portConstraint=eastwest;rotatable=0;whiteSpace=wrap;html=1;" vertex="1" parent="MdboUgI8TvP3iprR90km-72">
          <mxGeometry y="30" width="170" height="30" as="geometry" />
        </mxCell>
        <mxCell id="MdboUgI8TvP3iprR90km-74" value="COD_CONTATO" style="text;strokeColor=none;fillColor=none;align=left;verticalAlign=middle;spacingLeft=4;spacingRight=4;overflow=hidden;points=[[0,0.5],[1,0.5]];portConstraint=eastwest;rotatable=0;whiteSpace=wrap;html=1;" vertex="1" parent="MdboUgI8TvP3iprR90km-72">
          <mxGeometry y="60" width="170" height="30" as="geometry" />
        </mxCell>
        <mxCell id="MdboUgI8TvP3iprR90km-75" value="" style="endArrow=none;html=1;rounded=0;exitX=0.357;exitY=0.022;exitDx=0;exitDy=0;exitPerimeter=0;" edge="1" parent="1" source="MdboUgI8TvP3iprR90km-69">
          <mxGeometry width="50" height="50" relative="1" as="geometry">
            <mxPoint x="200" y="1080" as="sourcePoint" />
            <mxPoint x="250" y="1030" as="targetPoint" />
          </mxGeometry>
        </mxCell>
        <mxCell id="MdboUgI8TvP3iprR90km-76" value="" style="endArrow=none;html=1;rounded=0;entryX=0;entryY=0.5;entryDx=0;entryDy=0;" edge="1" parent="1" target="MdboUgI8TvP3iprR90km-13">
          <mxGeometry width="50" height="50" relative="1" as="geometry">
            <mxPoint x="-60" y="990" as="sourcePoint" />
            <mxPoint x="-10" y="940" as="targetPoint" />
            <Array as="points">
              <mxPoint y="990" />
              <mxPoint y="815" />
            </Array>
          </mxGeometry>
        </mxCell>
        <mxCell id="MdboUgI8TvP3iprR90km-77" value="" style="endArrow=none;html=1;rounded=0;entryX=0.75;entryY=0;entryDx=0;entryDy=0;" edge="1" parent="1" target="MdboUgI8TvP3iprR90km-72">
          <mxGeometry width="50" height="50" relative="1" as="geometry">
            <mxPoint x="300" y="850" as="sourcePoint" />
            <mxPoint x="350" y="800" as="targetPoint" />
            <Array as="points">
              <mxPoint x="330" y="850" />
            </Array>
          </mxGeometry>
        </mxCell>
        <mxCell id="MdboUgI8TvP3iprR90km-78" value="(1,1)" style="text;html=1;strokeColor=none;fillColor=none;align=center;verticalAlign=middle;whiteSpace=wrap;rounded=0;" vertex="1" parent="1">
          <mxGeometry x="240" y="320" width="60" height="30" as="geometry" />
        </mxCell>
        <mxCell id="MdboUgI8TvP3iprR90km-79" value="( 1,n)" style="text;html=1;strokeColor=none;fillColor=none;align=center;verticalAlign=middle;whiteSpace=wrap;rounded=0;" vertex="1" parent="1">
          <mxGeometry x="300" y="320" width="60" height="30" as="geometry" />
        </mxCell>
        <mxCell id="MdboUgI8TvP3iprR90km-80" value="(1,1)" style="text;html=1;strokeColor=none;fillColor=none;align=center;verticalAlign=middle;whiteSpace=wrap;rounded=0;" vertex="1" parent="1">
          <mxGeometry x="460" y="580" width="60" height="30" as="geometry" />
        </mxCell>
        <mxCell id="MdboUgI8TvP3iprR90km-81" value="(1,n)" style="text;html=1;strokeColor=none;fillColor=none;align=center;verticalAlign=middle;whiteSpace=wrap;rounded=0;" vertex="1" parent="1">
          <mxGeometry x="520" y="580" width="60" height="30" as="geometry" />
        </mxCell>
        <mxCell id="MdboUgI8TvP3iprR90km-82" value="(1,1)" style="text;html=1;strokeColor=none;fillColor=none;align=center;verticalAlign=middle;whiteSpace=wrap;rounded=0;" vertex="1" parent="1">
          <mxGeometry x="840" y="580" width="60" height="30" as="geometry" />
        </mxCell>
        <mxCell id="MdboUgI8TvP3iprR90km-83" value="(1,n)" style="text;html=1;strokeColor=none;fillColor=none;align=center;verticalAlign=middle;whiteSpace=wrap;rounded=0;" vertex="1" parent="1">
          <mxGeometry x="760" y="580" width="60" height="30" as="geometry" />
        </mxCell>
        <mxCell id="MdboUgI8TvP3iprR90km-84" value="(1,1)" style="text;html=1;strokeColor=none;fillColor=none;align=center;verticalAlign=middle;whiteSpace=wrap;rounded=0;" vertex="1" parent="1">
          <mxGeometry x="760" y="700" width="60" height="30" as="geometry" />
        </mxCell>
        <mxCell id="MdboUgI8TvP3iprR90km-85" value="PEDIDO_VENDA_FORMA_PAGAMENTO" style="swimlane;fontStyle=0;childLayout=stackLayout;horizontal=1;startSize=30;horizontalStack=0;resizeParent=1;resizeParentMax=0;resizeLast=0;collapsible=1;marginBottom=0;whiteSpace=wrap;html=1;" vertex="1" parent="1">
          <mxGeometry x="900" y="700" width="280" height="90" as="geometry" />
        </mxCell>
        <mxCell id="MdboUgI8TvP3iprR90km-86" value="COD_PEDIDO_VENDA&amp;nbsp;" style="text;strokeColor=none;fillColor=none;align=left;verticalAlign=middle;spacingLeft=4;spacingRight=4;overflow=hidden;points=[[0,0.5],[1,0.5]];portConstraint=eastwest;rotatable=0;whiteSpace=wrap;html=1;" vertex="1" parent="MdboUgI8TvP3iprR90km-85">
          <mxGeometry y="30" width="280" height="30" as="geometry" />
        </mxCell>
        <mxCell id="MdboUgI8TvP3iprR90km-87" value="COD_FORMA_PAGAMENTO" style="text;strokeColor=none;fillColor=none;align=left;verticalAlign=middle;spacingLeft=4;spacingRight=4;overflow=hidden;points=[[0,0.5],[1,0.5]];portConstraint=eastwest;rotatable=0;whiteSpace=wrap;html=1;" vertex="1" parent="MdboUgI8TvP3iprR90km-85">
          <mxGeometry y="60" width="280" height="30" as="geometry" />
        </mxCell>
        <mxCell id="MdboUgI8TvP3iprR90km-88" value="" style="endArrow=none;html=1;rounded=0;entryX=-0.004;entryY=0;entryDx=0;entryDy=0;entryPerimeter=0;" edge="1" parent="1" target="MdboUgI8TvP3iprR90km-86">
          <mxGeometry width="50" height="50" relative="1" as="geometry">
            <mxPoint x="770" y="730" as="sourcePoint" />
            <mxPoint x="820" y="680" as="targetPoint" />
          </mxGeometry>
        </mxCell>
        <mxCell id="MdboUgI8TvP3iprR90km-89" value="" style="endArrow=none;html=1;rounded=0;entryX=-0.016;entryY=-0.033;entryDx=0;entryDy=0;entryPerimeter=0;" edge="1" parent="1" target="MdboUgI8TvP3iprR90km-29">
          <mxGeometry width="50" height="50" relative="1" as="geometry">
            <mxPoint x="1180" y="730" as="sourcePoint" />
            <mxPoint x="1230" y="680" as="targetPoint" />
          </mxGeometry>
        </mxCell>
        <mxCell id="MdboUgI8TvP3iprR90km-90" value="(1,n)" style="text;html=1;strokeColor=none;fillColor=none;align=center;verticalAlign=middle;whiteSpace=wrap;rounded=0;" vertex="1" parent="1">
          <mxGeometry x="850" y="700" width="60" height="30" as="geometry" />
        </mxCell>
        <mxCell id="MdboUgI8TvP3iprR90km-91" value="(1,n)" style="text;html=1;strokeColor=none;fillColor=none;align=center;verticalAlign=middle;whiteSpace=wrap;rounded=0;" vertex="1" parent="1">
          <mxGeometry x="1170" y="700" width="60" height="30" as="geometry" />
        </mxCell>
        <mxCell id="MdboUgI8TvP3iprR90km-92" value="(1,1)" style="text;html=1;strokeColor=none;fillColor=none;align=center;verticalAlign=middle;whiteSpace=wrap;rounded=0;" vertex="1" parent="1">
          <mxGeometry x="1270" y="700" width="60" height="30" as="geometry" />
        </mxCell>
        <mxCell id="MdboUgI8TvP3iprR90km-93" value="(1,1)" style="text;html=1;strokeColor=none;fillColor=none;align=center;verticalAlign=middle;whiteSpace=wrap;rounded=0;" vertex="1" parent="1">
          <mxGeometry x="640" y="550" width="60" height="30" as="geometry" />
        </mxCell>
        <mxCell id="MdboUgI8TvP3iprR90km-94" value="(1,n)" style="text;html=1;strokeColor=none;fillColor=none;align=center;verticalAlign=middle;whiteSpace=wrap;rounded=0;" vertex="1" parent="1">
          <mxGeometry x="570" y="350" width="60" height="30" as="geometry" />
        </mxCell>
        <mxCell id="MdboUgI8TvP3iprR90km-95" value="(1,n)" style="text;html=1;strokeColor=none;fillColor=none;align=center;verticalAlign=middle;whiteSpace=wrap;rounded=0;" vertex="1" parent="1">
          <mxGeometry x="10" y="320" width="60" height="30" as="geometry" />
        </mxCell>
        <mxCell id="MdboUgI8TvP3iprR90km-96" value="(1,1)" style="text;html=1;strokeColor=none;fillColor=none;align=center;verticalAlign=middle;whiteSpace=wrap;rounded=0;" vertex="1" parent="1">
          <mxGeometry x="-70" y="320" width="60" height="30" as="geometry" />
        </mxCell>
        <mxCell id="MdboUgI8TvP3iprR90km-97" value="(1,1)" style="text;html=1;strokeColor=none;fillColor=none;align=center;verticalAlign=middle;whiteSpace=wrap;rounded=0;" vertex="1" parent="1">
          <mxGeometry x="10" y="380" width="60" height="30" as="geometry" />
        </mxCell>
        <mxCell id="MdboUgI8TvP3iprR90km-98" value="(1,n)" style="text;html=1;strokeColor=none;fillColor=none;align=center;verticalAlign=middle;whiteSpace=wrap;rounded=0;" vertex="1" parent="1">
          <mxGeometry x="-37.5" y="460" width="60" height="30" as="geometry" />
        </mxCell>
        <mxCell id="MdboUgI8TvP3iprR90km-99" value="(1,1)" style="text;html=1;strokeColor=none;fillColor=none;align=center;verticalAlign=middle;whiteSpace=wrap;rounded=0;" vertex="1" parent="1">
          <mxGeometry x="23" y="740" width="60" height="30" as="geometry" />
        </mxCell>
        <mxCell id="MdboUgI8TvP3iprR90km-100" value="(1,n)" style="text;html=1;strokeColor=none;fillColor=none;align=center;verticalAlign=middle;whiteSpace=wrap;rounded=0;" vertex="1" parent="1">
          <mxGeometry x="-50" y="740" width="60" height="30" as="geometry" />
        </mxCell>
        <mxCell id="MdboUgI8TvP3iprR90km-101" value="(1,n)" style="text;html=1;strokeColor=none;fillColor=none;align=center;verticalAlign=middle;whiteSpace=wrap;rounded=0;" vertex="1" parent="1">
          <mxGeometry x="-160" y="640" width="60" height="30" as="geometry" />
        </mxCell>
        <mxCell id="MdboUgI8TvP3iprR90km-102" value="(1,1)" style="text;html=1;strokeColor=none;fillColor=none;align=center;verticalAlign=middle;whiteSpace=wrap;rounded=0;" vertex="1" parent="1">
          <mxGeometry x="-160" y="710" width="60" height="30" as="geometry" />
        </mxCell>
        <mxCell id="MdboUgI8TvP3iprR90km-103" value="(1,1)" style="text;html=1;strokeColor=none;fillColor=none;align=center;verticalAlign=middle;whiteSpace=wrap;rounded=0;" vertex="1" parent="1">
          <mxGeometry x="350" y="740" width="60" height="30" as="geometry" />
        </mxCell>
        <mxCell id="MdboUgI8TvP3iprR90km-104" value="(1,n)" style="text;html=1;strokeColor=none;fillColor=none;align=center;verticalAlign=middle;whiteSpace=wrap;rounded=0;" vertex="1" parent="1">
          <mxGeometry x="290" y="740" width="60" height="30" as="geometry" />
        </mxCell>
        <mxCell id="MdboUgI8TvP3iprR90km-105" value="(1,1)" style="text;html=1;strokeColor=none;fillColor=none;align=center;verticalAlign=middle;whiteSpace=wrap;rounded=0;" vertex="1" parent="1">
          <mxGeometry x="23" y="785" width="60" height="30" as="geometry" />
        </mxCell>
        <mxCell id="MdboUgI8TvP3iprR90km-106" value="(1,1)" style="text;html=1;strokeColor=none;fillColor=none;align=center;verticalAlign=middle;whiteSpace=wrap;rounded=0;" vertex="1" parent="1">
          <mxGeometry x="-70" y="960" width="60" height="30" as="geometry" />
        </mxCell>
        <mxCell id="MdboUgI8TvP3iprR90km-107" value="(1,1)" style="text;html=1;strokeColor=none;fillColor=none;align=center;verticalAlign=middle;whiteSpace=wrap;rounded=0;" vertex="1" parent="1">
          <mxGeometry x="290" y="820" width="60" height="30" as="geometry" />
        </mxCell>
        <mxCell id="MdboUgI8TvP3iprR90km-108" value="(1,n)" style="text;html=1;strokeColor=none;fillColor=none;align=center;verticalAlign=middle;whiteSpace=wrap;rounded=0;" vertex="1" parent="1">
          <mxGeometry x="320" y="910" width="60" height="30" as="geometry" />
        </mxCell>
        <mxCell id="MdboUgI8TvP3iprR90km-109" value="(1,1)" style="text;html=1;strokeColor=none;fillColor=none;align=center;verticalAlign=middle;whiteSpace=wrap;rounded=0;" vertex="1" parent="1">
          <mxGeometry x="240" y="1030" width="60" height="30" as="geometry" />
        </mxCell>
        <mxCell id="MdboUgI8TvP3iprR90km-110" value="(1,1)" style="text;html=1;strokeColor=none;fillColor=none;align=center;verticalAlign=middle;whiteSpace=wrap;rounded=0;" vertex="1" parent="1">
          <mxGeometry x="240" y="1070" width="60" height="30" as="geometry" />
        </mxCell>
      </root>
    </mxGraphModel>
  </diagram>
</mxfile>
